<svg xmlns="http://www.w3.org/2000/svg" width="512" height="512" viewBox="0 0 512 512">
  <g transform="translate(64,64.6) scale(4.129)"><g transform="translate(-54.976568,-109.28466)">
    <path d="m 91.961093,113.16417 c -5.172666,5.17267 -5.172666,13.65582 0,18.8285 l 2.275966,2.27596 6.621011,-4.13808 -3.517415,-3.51748 c -2.275965,-2.27595 -2.275965,-6.00027 0,-8.06931 2.275973,-2.27595 6.000285,-2.27595 8.069355,0 2.27597,2.27596 2.27597,6.00028 0,8.06931 l -23.587337,23.79426 -4.138123,-4.13808 c -5.172666,-5.17267 -13.655824,-5.17267 -18.82849,0 -5.172658,5.1726 -5.172658,13.65582 0,18.82842 5.172666,5.17267 13.655824,5.17267 18.82849,0 l 3.517404,-3.31048 -6.414097,-4.34499 -2.482877,2.48287 c -2.275973,2.27596 -6.000289,2.27596 -8.06935,0 -2.069062,-2.27603 -2.275974,-6.00035 -0.20692,-8.2763 2.275966,-2.27596 6.000281,-2.27596 8.069351,0 l 22.759701,22.75973 3.724316,-1.65528 -6.621,6.62103 c -5.172666,5.17268 -5.172666,13.65583 0,18.8285 5.172658,5.17267 13.655822,5.17267 18.828482,0 5.17266,-5.17267 5.17266,-13.65582 0,-18.8285 l -2.27597,-2.27595 -6.621,4.13807 3.5174,3.51748 c 2.27597,2.27595 2.27597,6.00027 0,8.06931 -2.27597,2.27596 -6.000281,2.27596 -8.06935,0 -2.275966,-2.27596 -2.275966,-6.00028 0,-8.06931 l 23.79424,-23.79426 4.13813,4.13808 c 5.17266,5.17267 13.65582,5.17267 18.82849,0 5.17265,-5.1726 5.17265,-13.65582 0,-18.82842 -5.17267,-5.17267 -13.65583,-5.17267 -18.82849,0 l -3.51741,3.5174 6.4141,4.13807 2.27597,-2.27595 c 2.27597,-2.27596 6.00028,-2.27596 8.06935,0 2.27597,2.27595 2.27597,6.00027 0,8.06939 -2.27597,2.27595 -6.00029,2.27595 -8.06935,0 l -22.5528,-22.55282 -3.93122,1.65528 6.82791,-6.82795 c 5.17266,-5.17268 5.17266,-13.65583 0,-18.8285 -5.17266,-5.17267 -13.655824,-5.17267 -18.828482,0 z m 26.897837,45.72631 -4.34504,-1.86212 -13.0351,13.03506 -17.17324,-17.38014 4.138131,1.8622 13.242009,-13.24198 z" fill="#000000" stroke="#000000" stroke-width="3.15" stroke-linejoin="round" stroke-linecap="round"/>
    <path d="m 91.961093,113.16417 c -5.172666,5.17267 -5.172666,13.65582 0,18.8285 l 2.275966,2.27596 6.621011,-4.13808 -3.517415,-3.51748 c -2.275965,-2.27595 -2.275965,-6.00027 0,-8.06931 2.275973,-2.27595 6.000285,-2.27595 8.069355,0 2.27597,2.27596 2.27597,6.00028 0,8.06931 l -23.587337,23.79426 -4.138123,-4.13808 c -5.172666,-5.17267 -13.655824,-5.17267 -18.82849,0 -5.172658,5.1726 -5.172658,13.65582 0,18.82842 5.172666,5.17267 13.655824,5.17267 18.82849,0 l 3.517404,-3.31048 -6.414097,-4.34499 -2.482877,2.48287 c -2.275973,2.27596 -6.000289,2.27596 -8.06935,0 -2.069062,-2.27603 -2.275974,-6.00035 -0.20692,-8.2763 2.275966,-2.27596 6.000281,-2.27596 8.069351,0 l 22.759701,22.75973 3.724316,-1.65528 -6.621,6.62103 c -5.172666,5.17268 -5.172666,13.65583 0,18.8285 5.172658,5.17267 13.655822,5.17267 18.828482,0 5.17266,-5.17267 5.17266,-13.65582 0,-18.8285 l -2.27597,-2.27595 -6.621,4.13807 3.5174,3.51748 c 2.27597,2.27595 2.27597,6.00027 0,8.06931 -2.27597,2.27596 -6.000281,2.27596 -8.06935,0 -2.275966,-2.27596 -2.275966,-6.00028 0,-8.06931 l 23.79424,-23.79426 4.13813,4.13808 c 5.17266,5.17267 13.65582,5.17267 18.82849,0 5.17265,-5.1726 5.17265,-13.65582 0,-18.82842 -5.17267,-5.17267 -13.65583,-5.17267 -18.82849,0 l -3.51741,3.5174 6.4141,4.13807 2.27597,-2.27595 c 2.27597,-2.27596 6.00028,-2.27596 8.06935,0 2.27597,2.27595 2.27597,6.00027 0,8.06939 -2.27597,2.27595 -6.00029,2.27595 -8.06935,0 l -22.5528,-22.55282 -3.93122,1.65528 6.82791,-6.82795 c 5.17266,-5.17268 5.17266,-13.65583 0,-18.8285 -5.17266,-5.17267 -13.655824,-5.17267 -18.828482,0 z m 26.897837,45.72631 -4.34504,-1.86212 -13.0351,13.03506 -17.17324,-17.38014 4.138131,1.8622 13.242009,-13.24198 z" fill="#FFE216"/>
  </g></g>
</svg>
