<svg
   xmlns:svg="http://www.w3.org/2000/svg"
   xmlns="http://www.w3.org/2000/svg"
   width="76mm"
   height="76mm"
   viewBox="0 0 269.29134 269.29134"
   version="1.1">
  <g
     transform="translate(0,-783.07087)">
    <g
       transform="matrix(1.0091224,0,0,1.0091224,252.01902,-50.653101)"
       style="stroke-width:0.99096006">
      <path
         d="m -178.87924,833.81898 h 142.818559 c 7.31402,0 13.2713,5.98844 13.2713,13.27128 V 1067.4469 H -192.15054 V 847.09026 c 0,-7.31402 5.95725,-13.27128 13.2713,-13.27128"
         style="fill:#f4c110;fill-opacity:1;fill-rule:evenodd;stroke:none;stroke-width:0.12387004" />
      <path
         d="m -22.805001,1067.4469 v 20.7101 c 0,2.1366 -1.74662,3.8832 -3.88313,3.8832 h -29.78635 c -2.12091,0 -3.88314,-1.7466 -3.88314,-3.8832 v -20.7101 h 37.55262"
         style="fill:#824025;fill-opacity:1;fill-rule:evenodd;stroke:none;stroke-width:0.12387004" />
      <path
         d="m -172.26698,1067.4469 v 20.7101 c 0,2.1366 -1.74664,3.8832 -3.89874,3.8832 h -29.77078 c -2.1365,0 -3.88314,-1.7466 -3.88314,-3.8832 v -20.7101 h 37.55266"
         style="fill:#824025;fill-opacity:1;fill-rule:evenodd;stroke:none;stroke-width:0.12387004" />
      <path
         d="M -16.161531,1074.0747 H -216.46308 V 847.09026 c 0,-10.96325 8.92031,-19.89916 19.88356,-19.89916 h 160.518839 c 10.97884,0 19.89915,8.93591 19.89915,19.89916 z m -187.030239,-13.24 H -29.432841 V 847.09026 c 0,-3.66479 -2.96305,-6.64344 -6.62784,-6.64344 H -196.57952 c -3.64922,0 -6.61225,2.97865 -6.61225,6.64344 v 213.74444"
         style="fill:#824025;fill-opacity:1;fill-rule:nonzero;stroke:none;stroke-width:0.12387004" />
      <path
         d="m -185.99055,1051.0255 c 3.52447,0 6.37834,-2.8696 6.37834,-6.394 0,-3.5089 -2.85387,-6.3783 -6.37834,-6.3783 -3.50885,0 -6.37834,2.8694 -6.37834,6.3783 0,3.5244 2.86949,6.394 6.37834,6.394"
         style="fill:#824025;fill-opacity:1;fill-rule:evenodd;stroke:none;stroke-width:0.12387004" />
      <path
         d="m -170.50475,1051.0255 c 3.50885,0 6.37833,-2.8696 6.37833,-6.394 0,-3.5089 -2.86948,-6.3783 -6.37833,-6.3783 -3.50887,0 -6.37835,2.8694 -6.37835,6.3783 0,3.5244 2.86948,6.394 6.37835,6.394"
         style="fill:#824025;fill-opacity:1;fill-rule:evenodd;stroke:none;stroke-width:0.12387004" />
      <path
         d="m -62.104261,1051.0255 c 3.50887,0 6.37834,-2.8696 6.37834,-6.394 0,-3.5089 -2.86947,-6.3783 -6.37834,-6.3783 -3.52444,0 -6.39392,2.8694 -6.39392,6.3783 0,3.5244 2.86948,6.394 6.39392,6.394"
         style="fill:#824025;fill-opacity:1;fill-rule:evenodd;stroke:none;stroke-width:0.12387004" />
      <path
         d="m -46.634051,1051.0255 c 3.50885,0 6.3783,-2.8696 6.3783,-6.394 0,-3.5089 -2.86945,-6.3783 -6.3783,-6.3783 -3.50888,0 -6.37834,2.8694 -6.37834,6.3783 0,3.5244 2.86946,6.394 6.37834,6.394"
         style="fill:#824025;fill-opacity:1;fill-rule:evenodd;stroke:none;stroke-width:0.12387004" />
      <path
         d="m -150.23132,1051.0722 h 67.838019 v -14.0354 h -67.838019 v 14.0354"
         style="fill:#824025;fill-opacity:1;fill-rule:evenodd;stroke:none;stroke-width:0.12387004" />
      <path
         d="m -205.79613,935.59162 h 178.967649 v 68.49298 c 0,6.9709 -5.72334,12.6944 -12.69429,12.6944 H -193.10184 c -6.95535,0 -12.69429,-5.6922 -12.69429,-12.6944 v -68.49298"
         style="fill:#824025;fill-opacity:1;fill-rule:evenodd;stroke:none;stroke-width:0.12387004" />
      <path
         d="m -205.79613,916.1915 h 178.967649 v -55.23732 c 0,-6.95534 -5.73894,-12.69428 -12.69429,-12.69428 H -193.10184 c -6.95535,0 -12.69429,5.70774 -12.69429,12.69428 v 55.23732"
         style="fill:#824025;fill-opacity:1;fill-rule:evenodd;stroke:none;stroke-width:0.12387004" />
      <path
         d="m -241.66452,950.1417 h 13.97308 c 2.43281,0 4.41336,1.98055 4.41336,4.41338 v 37.36558 c 0,2.43279 -1.98055,4.41331 -4.41336,4.41331 h -13.97308 c -2.43281,0 -4.41337,-1.98052 -4.41337,-4.41331 v -37.36558 c 0,-2.43283 1.98056,-4.41338 4.41337,-4.41338"
         style="fill:#824025;fill-opacity:1;fill-rule:evenodd;stroke:none;stroke-width:0.12387004" />
      <path
         d="m -239.09136,956.86313 v -11.66502 c 0,-1.93378 0.60883,-3.7428 1.69986,-5.23991 1.09164,-1.46592 2.63554,-2.60435 4.50693,-3.19696 l 22.8466,-7.15809 2.63555,8.42129 -22.86219,7.17367 h 0.0127 v 11.66502 h -8.84234"
         style="fill:#824025;fill-opacity:1;fill-rule:evenodd;stroke:none;stroke-width:0.12387004" />
      <path
         d="m 9.0398993,950.1417 h -13.95747 c -2.44841,0 -4.42898,1.98055 -4.42898,4.41338 v 37.36558 c 0,2.43279 1.98057,4.41331 4.42898,4.41331 h 13.95747 c 2.4328197,0 4.4133897,-1.98052 4.4133897,-4.41331 v -37.36558 c 0,-2.43283 -1.98057,-4.41338 -4.4133897,-4.41338"
         style="fill:#824025;fill-opacity:1;fill-rule:evenodd;stroke:none;stroke-width:0.12387004" />
      <path
         d="m 6.4823393,956.86313 v -11.66502 c 0,-1.93378 -0.62381,-3.7428 -1.71545,-5.23991 -1.09165,-1.46592 -2.63554,-2.60435 -4.49133996,-3.19696 l -22.86220034,-7.15809 -2.61995,8.42129 22.8466003,7.17367 v 0 11.66502 h 8.84234"
         style="fill:#824025;fill-opacity:1;fill-rule:evenodd;stroke:none;stroke-width:0.12387004" />
    </g>
  </g>
</svg>
