<svg
   width="76mm"
   height="76mm"
   viewBox="0 0 76 76"
   version="1.1"
   xmlns="http://www.w3.org/2000/svg"
   xmlns:svg="http://www.w3.org/2000/svg">
  <g>
    <path
       d="m 52.575104,39.647223 c 0.333687,1.320091 0.512448,2.704535 0.512448,4.13522 0,8.815303 -6.754903,15.959548 -15.087671,15.959548 -8.332769,0 -15.087434,-7.144245 -15.087434,-15.959548 0,-1.430685 0.178761,-2.815129 0.512449,-4.13522 1.72266,6.810319 7.59377,11.824329 14.574985,11.824329 6.981453,0 12.852205,-5.01401 14.575104,-11.824329"
       style="fill:#f4c110;fill-opacity:1;fill-rule:evenodd;stroke:none;stroke-width:0.42042" />
    <path
       d="M 0.02191603,45.72355 23.368347,39.868767 c -0.296743,1.251567 -0.456436,2.562004 -0.456436,3.913676 0,1.10951 0.107252,2.192087 0.309852,3.238555 L 0.63899887,50.188763 Z M 75.358975,50.188763 52.774898,47.020998 c 0.20498,-1.045157 0.312237,-2.130356 0.312237,-3.238555 0,-1.351672 -0.159693,-2.662109 -0.45882,-3.913676 l 23.349769,5.854783 -0.619704,4.465213"
       style="fill:#824025;fill-opacity:1;fill-rule:evenodd;stroke:none;stroke-width:0.42042" />
    <path
       d="m 37.999881,61.525431 c -9.304989,0 -16.875879,-7.96023 -16.875879,-17.744657 0,-9.783115 7.57089,-17.744656 16.875879,-17.744656 9.306897,0 16.876117,7.961541 16.876117,17.744656 0,9.784427 -7.56922,17.744657 -16.876117,17.744657 z m 0,-31.917429 c -7.334327,0 -13.300657,6.360557 -13.300657,14.172772 0,7.813884 5.96633,14.172773 13.300657,14.172773 7.334209,0 13.300895,-6.358889 13.300895,-14.172773 0,-7.812215 -5.966686,-14.172772 -13.300895,-14.172772"
       style="fill:#824025;fill-opacity:1;fill-rule:nonzero;stroke:none;stroke-width:0.42042" />
    <path
       d="m 38,60.112861 c 2.562003,0 4.650886,-2.088644 4.650886,-4.650767 0,-2.562003 -2.088883,-4.651124 -4.650886,-4.651124 -2.561884,0 -4.650886,2.089121 -4.650886,4.651124 0,2.562123 2.089002,4.650767 4.650886,4.650767"
       style="fill:#824025;fill-opacity:1;fill-rule:evenodd;stroke:none;stroke-width:0.42042" />
    <path
       d="m 38.000597,60.112861 c 2.562122,0 4.651124,-2.088644 4.651124,-4.650767 0,-2.562003 -2.089002,-4.651124 -4.651124,-4.651124 -2.563315,0 -4.652317,2.089121 -4.652317,4.651124 0,2.562123 2.089002,4.650767 4.652317,4.650767"
       style="fill:#824025;fill-opacity:1;fill-rule:evenodd;stroke:none;stroke-width:0.42042" />
    <path
       d="M 39.988001,14.474568 V 27.845656 H 36.011999 V 14.474568 h 1.988776 1.987226"
       style="fill:#824025;fill-opacity:1;fill-rule:evenodd;stroke:none;stroke-width:0.42042" />
    <path
       d="M 47.947099,38.86854 C 45.786236,42.236994 42.137007,44.452201 38,44.452201 c -4.138438,0 -7.787547,-2.215207 -9.9471,-5.583661 0.642349,-1.362994 1.527216,-2.574994 2.596328,-3.576889 1.957671,1.833015 4.530995,2.942883 7.350772,2.942883 2.819777,0 5.391433,-1.10951 7.350655,-2.942883 1.0678,0.999869 1.954575,2.213895 2.596445,3.576889"
       style="fill:#824025;fill-opacity:1;fill-rule:evenodd;stroke:none;stroke-width:0.42042" />
    <path
       d="m 39.192276,55.462094 h -2.384553 v -9.139099 h 2.384553 v 9.139099"
       style="fill:#824025;fill-opacity:1;fill-rule:nonzero;stroke:none;stroke-width:0.42042" />
    <path
       d="m 39.192336,55.462094 h -2.384672 v -9.139099 h 2.384672 v 9.139099"
       style="fill:#824025;fill-opacity:1;fill-rule:nonzero;stroke:none;stroke-width:0.42042" />
    <path
       d="m 38.000835,57.279975 c 0.99987,0 1.81788,-0.816341 1.81788,-1.817881 0,-1.002253 -0.817534,-1.81788 -1.81788,-1.81788 -1.003446,0 -1.81955,0.816342 -1.81955,1.81788 0,1.002254 0.816342,1.817881 1.81955,1.817881"
       style="fill:#ffffff;fill-opacity:1;fill-rule:evenodd;stroke:none;stroke-width:0.42042" />
    <path
       d="m 37.999165,57.279975 c 1.002253,0 1.819669,-0.816341 1.819669,-1.817881 0,-1.002253 -0.817535,-1.81788 -1.819669,-1.81788 -1.002254,0 -1.818,0.816342 -1.818,1.81788 0,1.002254 0.816342,1.817881 1.818,1.817881"
       style="fill:#ffffff;fill-opacity:1;fill-rule:evenodd;stroke:none;stroke-width:0.42042" />
  </g>
</svg>
