<svg
   xmlns:svg="http://www.w3.org/2000/svg"
   xmlns="http://www.w3.org/2000/svg"
   width="76mm"
   height="76mm"
   viewBox="0 0 269.29134 269.29134"
   version="1.1">
  <g
     transform="translate(0,-783.07087)">
    <g
       transform="matrix(0.72173552,0,0,0.72173552,-67.515627,680.6817)">
      <rect
         y="230.09804"
         x="186.37314"
         height="49.497475"
         width="31.819805"
         style="color:#000000;clip-rule:nonzero;display:inline;overflow:visible;visibility:visible;opacity:1;isolation:auto;mix-blend-mode:normal;color-interpolation:sRGB;color-interpolation-filters:linearRGB;solid-color:#000000;solid-opacity:1;fill:#ffffff;fill-opacity:1;fill-rule:evenodd;stroke:none;stroke-width:1.25;stroke-linecap:butt;stroke-linejoin:miter;stroke-miterlimit:4;stroke-dasharray:none;stroke-dashoffset:0;stroke-opacity:1;marker:none;color-rendering:auto;image-rendering:auto;shape-rendering:auto;text-rendering:auto;enable-background:accumulate" />
      <rect
         y="346.77066"
         x="170.21071"
         height="132.32999"
         width="25.253813"
         style="color:#000000;clip-rule:nonzero;display:inline;overflow:visible;visibility:visible;opacity:1;isolation:auto;mix-blend-mode:normal;color-interpolation:sRGB;color-interpolation-filters:linearRGB;solid-color:#000000;solid-opacity:1;fill:#ffffff;fill-opacity:1;fill-rule:evenodd;stroke:none;stroke-width:1.25;stroke-linecap:butt;stroke-linejoin:miter;stroke-miterlimit:4;stroke-dasharray:none;stroke-dashoffset:0;stroke-opacity:1;marker:none;color-rendering:auto;image-rendering:auto;shape-rendering:auto;text-rendering:auto;enable-background:accumulate" />
      <path
         d="m 280.11289,482.53491 c -32.34103,0 -43.37546,0 -75.71648,0 -8.12891,0 -14.75329,-6.63009 -14.75329,-14.78154 0,-23.10202 0,-67.91618 0,-93.967 0,-50.07316 14.25564,-111.81002 20.86499,-137.80449 1.90076,-7.49407 8.33551,-12.65915 16.0757,-12.90332 51.15126,-1.50257 77.19636,-1.50257 128.35708,0 7.73253,0.24492 14.16729,5.39047 16.07375,12.90332 6.61882,26.01325 20.85943,87.73133 20.85943,137.80449 0,26.05082 0,70.86498 0,93.967 0,8.15145 -6.63384,14.78154 -14.75524,14.78154 -32.34102,0 -64.67258,0 -97.00594,0"
         style="fill:#f4c110;fill-opacity:1;fill-rule:evenodd;stroke:none" />
      <path
         d="m 165.65834,438.04004 2.67833,0 0,29.71333 c 0,8.15145 6.6319,14.78154 14.75329,14.78154 l 23.25047,0 0,22.16291 c 0,2.57315 -2.12057,4.69553 -4.69553,4.69553 l -35.98656,0 c -2.58262,0 -4.70305,-2.10359 -4.70305,-4.69553 l 0,-61.94346 c 0,-2.59194 2.11292,-4.71432 4.70305,-4.71432"
         style="fill:#824025;fill-opacity:1;fill-rule:evenodd;stroke:none" />
      <path
         d="m 391.87407,438.04004 2.6839,0 c 2.59013,0 4.69553,2.12238 4.69553,4.71432 l 0,61.94346 c 0,2.57315 -2.12043,4.69553 -4.69553,4.69553 l -35.98657,0 c -2.58246,0 -4.69553,-2.10359 -4.69553,-4.69553 l 0,-22.16291 23.24296,0 c 8.1214,0 14.75524,-6.63009 14.75524,-14.78154 l 0,-29.71333"
         style="fill:#824025;fill-opacity:1;fill-rule:evenodd;stroke:none" />
      <path
         d="m 169.53302,355.06059 c 2.26708,-27.62851 7.3946,-56.17735 12.22912,-78.80982 l 196.69203,0 c 4.83452,22.63247 9.95648,51.18131 12.22341,78.80982 l -0.79336,0 c -36.23629,-3.92547 -73.33851,-5.93515 -111.10757,-5.93515 -36.84483,0 -73.06053,1.93456 -108.44607,5.65342 l 0,0.28248 -0.79786,0"
         style="fill:#824025;fill-opacity:1;fill-rule:evenodd;stroke:none" />
      <path
         d="m 210.44245,414.73142 4.6147,16.05872 -42.12081,0 c -2.3703,0 -4.32169,-1.87821 -4.40809,-4.26354 -0.18331,-5.0524 -0.24191,-9.9921 -0.12021,-14.74398 l 0.008,-0.24492 c 12.58958,0 25.18683,0 37.78393,0 1.99662,0 3.69077,1.27719 4.24852,3.19297"
         style="fill:#824025;fill-opacity:1;fill-rule:evenodd;stroke:none" />
      <path
         d="m 349.78137,414.73142 -4.62041,16.05872 42.11149,0 c 2.37782,0 4.32921,-1.87821 4.41756,-4.26354 0.18331,-5.0524 0.24191,-9.9921 0.12021,-14.74398 l -0.008,-0.24492 c -12.58973,0 -25.18683,0 -37.77657,0 -2.00218,0 -3.69813,1.27719 -4.24852,3.19297"
         style="fill:#824025;fill-opacity:1;fill-rule:evenodd;stroke:none" />
      <path
         d="m 219.43714,411.53846 121.34203,0 -8.83331,32.75603 -103.6679,0 -8.84082,-32.75603"
         style="fill:#824025;fill-opacity:1;fill-rule:evenodd;stroke:none" />
      <path
         d="m 413.95435,309.75809 -10.53302,0 c -5.44306,0 -9.90389,4.45137 -9.90389,9.89818 l 0,19.7588 0.16227,0 c -0.10518,0.56347 -0.16227,1.1645 -0.16227,1.76553 l 0,9.91696 20.43691,0 c 5.4656,0 9.89818,-4.45136 9.89818,-9.91696 l 0,0 c 0,-4.2072 0,-17.29835 0,-21.52433 l 0,0 c 0,-5.44681 -4.45136,-9.89818 -9.89818,-9.89818"
         style="fill:#824025;fill-opacity:1;fill-rule:evenodd;stroke:none" />
      <path
         d="m 146.26016,309.75809 10.53482,0 c 5.44501,0 9.90569,4.45137 9.90569,9.89818 l 0,19.7588 -0.16227,0 c 0.10518,0.56347 0.16227,1.1645 0.16227,1.76553 l 0,9.91696 -20.44051,0 c -5.45809,0 -9.9039,-4.45136 -9.9039,-9.91696 l 0,0 c 0,-4.2072 0,-17.29835 0,-21.52433 l 0,0 c 0,-5.44681 4.46083,-9.89818 9.9039,-9.89818"
         style="fill:#824025;fill-opacity:1;fill-rule:evenodd;stroke:none" />
      <path
         d="m 203.47233,465.68734 c 5.0261,0 9.11309,-4.09451 9.11309,-9.12812 0,-5.01483 -4.08699,-9.10933 -9.11309,-9.10933 -5.01859,0 -9.11309,4.0945 -9.11309,9.10933 0,5.03361 4.0945,9.12812 9.11309,9.12812"
         style="fill:#824025;fill-opacity:1;fill-rule:evenodd;stroke:none" />
      <path
         d="m 356.74398,465.68734 c 5.01858,0 9.10557,-4.09451 9.10557,-9.12812 0,-5.01483 -4.08699,-9.10933 -9.10557,-9.10933 -5.01678,0 -9.1188,4.0945 -9.1188,9.10933 0,5.03361 4.10202,9.12812 9.1188,9.12812"
         style="fill:#824025;fill-opacity:1;fill-rule:evenodd;stroke:none" />
      <path
         d="m 377.11883,490.49853 -194.02136,0 c -12.53699,0 -22.7432,-10.1987 -22.7432,-22.74516 l 0,-93.967 c 0,-51.35034 14.7608,-114.85272 21.10735,-139.75783 2.77405,-10.96876 12.24595,-18.55674 23.57338,-18.9136 51.33532,-1.54014 98.82601,-1.54014 150.1463,0 11.32939,0.35761 20.80114,7.94484 23.57338,18.9136 6.34656,24.88632 21.10931,88.36992 21.10931,139.75783 l 0,93.967 c 0,12.54646 -10.20621,22.74516 -22.74516,22.74516 z M 280.10537,229.91525 c -24.54268,0 -49.09093,0.37565 -74.58579,1.14496 -4.18271,0.15026 -7.55042,2.83611 -8.57772,6.89305 -6.19811,24.34164 -20.61527,86.2851 -20.61527,135.83236 l 0,93.967 c 0,3.73764 3.037,6.78035 6.77088,6.78035 l 194.02136,0 c 3.72818,0 6.76533,-3.04271 6.76533,-6.78035 l 0,-93.967 c 0,-49.58482 -14.40214,-111.50951 -20.6022,-135.83236 -1.03527,-4.05694 -4.39502,-6.74279 -8.59094,-6.89305 -25.49487,-0.77082 -50.02989,-1.14496 -74.58565,-1.14496"
         style="fill:#824025;fill-opacity:1;fill-rule:nonzero;stroke:none" />
    </g>
  </g>
</svg>
