<svg
   xmlns:svg="http://www.w3.org/2000/svg"
   xmlns="http://www.w3.org/2000/svg"
   width="76mm"
   height="76mm"
   viewBox="0 0 269.29134 269.29134"
   version="1.1">
  <g
     transform="translate(0,-783.07087)">
    <g
       transform="matrix(1.0223713,0,0,1.0223713,0.03354082,-22.688411)">
      <rect
         y="816.94995"
         x="39.843563"
         height="190.6234"
         width="25.012217"
         style="color:#000000;display:inline;overflow:visible;visibility:visible;opacity:1;fill:#ffffff;fill-opacity:1;fill-rule:nonzero;stroke:none;stroke-width:0.5;stroke-linecap:butt;stroke-linejoin:round;stroke-miterlimit:4;stroke-dasharray:none;stroke-dashoffset:0;stroke-opacity:1;marker:none;enable-background:accumulate" />
      <path
         d="m 70.088422,813.42374 140.561508,0 c 7.19844,0 13.06156,5.89382 13.06156,13.04623 l 0,182.07913 -166.684632,0 0,-182.07913 c 0,-7.1831 5.863115,-13.04623 13.061564,-13.04623"
         style="fill:#f4c110;fill-opacity:1;fill-rule:evenodd;stroke:none" />
      <path
         d="m 223.69614,1008.5491 0,20.3829 c 0,2.0873 -1.71902,3.8218 -3.82176,3.8218 l -24.95666,0 c -2.10275,0 -3.82177,-1.719 -3.82177,-3.8218 l 0,-20.3829 32.60019,0"
         style="fill:#824025;fill-opacity:1;fill-rule:evenodd;stroke:none" />
      <path
         d="m 72.237214,1008.5491 0,20.3829 c 0,2.0873 -1.719033,3.8218 -3.821774,3.8218 l -24.956653,0 c -2.102748,0 -3.821774,-1.719 -3.821774,-3.8218 l 0,-20.3829 32.600201,0"
         style="fill:#824025;fill-opacity:1;fill-rule:evenodd;stroke:none" />
      <path
         d="m 230.2346,1015.0723 -197.136051,0 0,-188.60233 c 0,-10.79 8.779344,-19.56933 19.569333,-19.56933 l 157.982048,0 c 10.80534,0 19.58467,8.77933 19.58467,19.56933 l 0,188.60233 z m -184.074479,-13.031 171.012909,0 0,-175.57133 c 0,-3.59156 -2.91621,-6.53847 -6.5231,-6.53847 l -157.982048,0 c -3.591547,0 -6.507761,2.94691 -6.507761,6.53847 l 0,175.57133"
         style="fill:#824025;fill-opacity:1;fill-rule:nonzero;stroke:none" />
      <path
         d="m 63.089512,992.37187 c 3.468755,0 6.277533,-2.82418 6.277533,-6.27756 0,-3.45344 -2.808778,-6.27753 -6.277533,-6.27753 -3.453415,0 -6.277541,2.82409 -6.277541,6.27753 0,3.45338 2.824126,6.27756 6.277541,6.27756"
         style="fill:#824025;fill-opacity:1;fill-rule:evenodd;stroke:none" />
      <path
         d="m 78.330564,992.37187 c 3.453408,0 6.277534,-2.82418 6.277534,-6.27756 0,-3.45344 -2.824126,-6.27753 -6.277534,-6.27753 -3.453407,0 -6.277533,2.82409 -6.277533,6.27753 0,3.45338 2.824126,6.27756 6.277533,6.27756"
         style="fill:#824025;fill-opacity:1;fill-rule:evenodd;stroke:none" />
      <path
         d="m 185.01794,992.37187 c 3.45342,0 6.27754,-2.82418 6.27754,-6.27756 0,-3.45344 -2.82412,-6.27753 -6.27754,-6.27753 -3.46875,0 -6.29289,2.82409 -6.29289,6.27753 0,3.45338 2.82414,6.27756 6.29289,6.27756"
         style="fill:#824025;fill-opacity:1;fill-rule:evenodd;stroke:none" />
      <path
         d="m 200.24365,992.37187 c 3.45341,0 6.27754,-2.82418 6.27754,-6.27756 0,-3.45344 -2.82413,-6.27753 -6.27754,-6.27753 -3.45342,0 -6.27753,2.82409 -6.27753,6.27753 0,3.45338 2.82411,6.27756 6.27753,6.27756"
         style="fill:#824025;fill-opacity:1;fill-rule:evenodd;stroke:none" />
      <path
         d="m 98.283607,992.43326 66.765943,0 0,-13.81369 -66.765943,0 0,13.81369 z"
         style="fill:#824025;fill-opacity:1;fill-rule:evenodd;stroke:none" />
      <path
         d="m 43.596919,852.66984 176.139321,0 0,93.51837 c 0,6.87612 -5.61755,12.49369 -12.49368,12.49369 l -151.151966,0 c -6.87612,0 -12.493675,-5.61757 -12.493675,-12.49369 l 0,-93.51837"
         style="fill:#824025;fill-opacity:1;fill-rule:evenodd;stroke:none" />
      <path
         d="m 75.936198,827.86667 111.445412,0 c 2.21018,0 4.00595,1.82648 4.00595,4.00597 l 0,9.2091 c 0,2.17947 -1.82647,4.00594 -4.00595,4.00594 l -111.445412,0 c -2.164133,0 -3.99061,-1.79577 -3.99061,-4.00594 l 0,-9.2091 c 0,-2.21019 1.795774,-4.00597 3.99061,-4.00597"
         style="fill:#824025;fill-opacity:1;fill-rule:evenodd;stroke:none" />
      <path
         d="m 8.2953832,870.3513 13.7522528,0 c 2.394368,0 4.343627,1.96461 4.343627,4.35898 l 0,36.75964 c 0,2.40972 -1.949259,4.35896 -4.343627,4.35896 l -13.7522528,0 c -2.39436,0 -4.3436212,-1.94924 -4.3436212,-4.35896 l 0,-36.75964 c 0,-2.39437 1.9492612,-4.35898 4.3436212,-4.35898"
         style="fill:#824025;fill-opacity:1;fill-rule:evenodd;stroke:none" />
      <path
         d="m 10.827882,876.98185 0,-11.48068 c 0,-1.91856 0.597987,-3.69898 1.672996,-5.15708 1.07439,-1.44276 2.593891,-2.57855 4.435709,-3.14645 l 22.485539,-7.06029 2.593899,8.30353 -22.500888,7.04495 0.01228,0.0123 0,11.48066 -8.702596,0"
         style="fill:#824025;fill-opacity:1;fill-rule:evenodd;stroke:none" />
      <path
         d="m 255.03778,870.3513 -13.73691,0 c -2.40971,0 -4.35898,1.96461 -4.35898,4.35898 l 0,36.75964 c 0,2.40972 1.94927,4.35896 4.35898,4.35896 l 13.73691,0 c 2.39436,0 4.34361,-1.94924 4.34361,-4.35896 l 0,-36.75964 c 0,-2.39437 -1.94925,-4.35898 -4.34361,-4.35898"
         style="fill:#824025;fill-opacity:1;fill-rule:evenodd;stroke:none" />
      <path
         d="m 252.52062,876.98185 0,-11.48068 c 0,-1.91856 -0.61395,-3.69898 -1.68833,-5.15708 -1.0744,-1.44276 -2.59389,-2.57855 -4.42037,-3.14645 l -22.50089,-7.06029 -2.57855,8.30353 22.48555,7.04495 0,0.0123 0,11.48066 8.70259,0"
         style="fill:#824025;fill-opacity:1;fill-rule:evenodd;stroke:none" />
    </g>
  </g>
</svg>
