<svg
   width="76mm"
   height="76mm"
   viewBox="0 0 76.000001 76"
   version="1.1"
   xmlns="http://www.w3.org/2000/svg"
   xmlns:svg="http://www.w3.org/2000/svg">
  <g
     transform="translate(-178.60604,-123.53332)">
    <path
       d="m 219.43627,125.85178 c 27.78659,2.87034 41.04575,47.54218 16.76356,62.53261 v 0.24903 c 0,2.54079 -2.07454,4.61745 -4.61546,4.61745 h -9.31865 -5.65875 -9.32078 c -2.54276,0 -4.61546,-2.07666 -4.61546,-4.61745 v -0.2547 C 178.3901,173.3883 191.65181,128.72141 219.43627,125.85108"
       style="fill:#f4c110;fill-opacity:1;fill-rule:evenodd;stroke:none;stroke-width:0.499182" />
    <path
       d="m 186.68895,199.48114 10.94111,-8.53602 c 0.8023,1.37255 2.29528,2.30632 3.9954,2.30632 h 0.2646 l -6.01164,6.2297 z m 50.6436,0 -6.01166,-6.2297 h 0.2632 c 1.70225,0 3.1938,-0.93391 3.99356,-2.30632 l 10.94507,8.53602 h -9.19046"
       style="fill:#824025;fill-opacity:1;fill-rule:evenodd;stroke:none;stroke-width:0.499182" />
    <path
       d="m 231.58437,195.37295 h -29.95693 c -3.39487,0 -6.21229,-2.52083 -6.67245,-5.79558 -11.14981,-7.51268 -15.5001,-22.17864 -11.08939,-37.72813 3.99342,-14.06698 15.6658,-28.26373 32.73939,-28.26373 17.07543,0 28.74795,14.18684 32.73938,28.25878 4.41822,15.56944 0.0566,30.25039 -11.11881,37.75813 -0.54761,3.34946 -3.31663,5.77053 -6.64119,5.77053 z m -14.97938,-67.54936 c -14.85868,0 -25.09737,12.6493 -28.65611,25.1837 -3.03802,10.71257 -2.19595,25.92755 10.17629,33.56504 l 1.0089,0.62402 v 1.18294 c 0,1.62726 1.11926,2.75049 2.4938,2.75049 h 29.95693 c 1.37254,0 2.49196,-1.12352 2.49196,-2.49593 v -1.18294 l 1.01031,-0.86882 c 12.37422,-7.64754 13.21487,-22.86252 10.17474,-33.58004 -3.5586,-12.52945 -13.79729,-25.17874 -28.65597,-25.17874"
       style="fill:#824025;fill-opacity:1;fill-rule:nonzero;stroke:none;stroke-width:0.499182" />
    <path
       d="m 216.61093,132.6107 c -5.44649,0 -10.42646,2.25636 -14.5621,6.30978 -1.7512,1.71217 -3.29964,3.69883 -4.62339,5.86039 -1.99472,3.26965 -3.55873,7.11832 -4.4632,11.15661 6.3995,4.01847 14.66142,6.43954 23.68563,6.43954 9.03975,0 17.31711,-2.42603 23.71873,-6.4595 -2.79195,-12.40464 -12.26498,-23.30682 -23.75567,-23.30682"
       style="fill:#824025;fill-opacity:1;fill-rule:evenodd;stroke:none;stroke-width:0.499182" />
    <path
       d="m 189.79531,165.68163 c 4.38737,3.94842 12.34889,9.48434 16.33482,10.45787 -0.41177,1.36831 -0.81928,2.73549 -1.23246,4.10323 -5.01733,0 -8.93095,-0.84334 -12.13664,-2.49097 -1.95936,-3.62397 -2.90925,-7.78225 -2.96572,-12.07013"
       style="fill:#824025;fill-opacity:1;fill-rule:evenodd;stroke:none;stroke-width:0.499182" />
    <path
       d="m 243.41848,165.68163 c -4.3892,3.95352 -12.35073,9.48434 -16.33467,10.45787 0.41176,1.36831 0.81928,2.73549 1.23105,4.10323 5.01733,0 8.9308,-0.8391 12.13607,-2.48589 1.96177,-3.62905 2.90982,-7.78733 2.96811,-12.07521"
       style="fill:#824025;fill-opacity:1;fill-rule:evenodd;stroke:none;stroke-width:0.499182" />
    <path
       d="m 213.7406,182.64881 h 5.73062 c 2.54291,0 4.61745,2.07651 4.61745,4.61744 v 5.33626 h -14.96552 v -5.33626 c 0,-2.54588 2.07468,-4.61744 4.61745,-4.61744"
       style="fill:#824025;fill-opacity:1;fill-rule:evenodd;stroke:none;stroke-width:0.499182" />
  </g>
</svg>
