<svg version="1.1" xmlns="http://www.w3.org/2000/svg" width="32" height="32" viewBox="0 0 32 32">
<path fill="#fff" d="M4.345 15.767h23.347v4.982h-23.347v-4.982z"></path>
<path fill="#fff" d="M5.186 4.903h5.762v11.884h-5.762v-11.884z"></path>
<path fill="#fff" d="M6.026 3.823h4.381v1.921h-4.381v-1.921z"></path>
<path class="light_layer_svg" fill="#ffe216" d="M27.172 5.959v13c0.554 0.323 0.929 0.926 0.929 1.606v6.393h-21.915v-6.393c0-0.684 0.374-1.285 0.929-1.608v-12.996c0-2.224 4.844-3.41 10.021-3.562 5.183 0.151 10.035 1.338 10.035 3.56z"></path>
<path class="dark_layer_svg" fill="#884c2a" d="M23.744 22.839h3.853c0.277 0 0.503 0.228 0.503 0.505v6.633c0 0.276-0.227 0.502-0.503 0.502h-3.853c-0.277 0-0.504-0.224-0.504-0.502v-6.633c0-0.278 0.226-0.505 0.504-0.505z"></path>
<path class="dark_layer_svg" fill="#884c2a" d="M4.403 22.839h3.854c0.277 0 0.503 0.228 0.503 0.505v6.633c0 0.276-0.227 0.502-0.503 0.502h-3.854c-0.276 0-0.503-0.224-0.503-0.502v-6.633c0-0.278 0.226-0.505 0.503-0.505z"></path>
<path class="dark_layer_svg" fill="#884c2a" d="M28.96 27.815h-25.919v-7.251c0-0.787 0.346-1.53 0.929-2.042v-12.56c0-3.279 6.48-4.442 12.029-4.442 5.551 0 12.033 1.162 12.033 4.438v12.566c0.583 0.511 0.929 1.255 0.929 2.040v7.251zM4.757 26.1h22.486v-5.535c0-0.353-0.192-0.684-0.503-0.866l-0.427-0.248v-13.492c0-1.314-4.146-2.72-10.316-2.72-6.169 0-10.313 1.409-10.313 2.724v13.486l-0.426 0.248c-0.311 0.182-0.502 0.513-0.502 0.868v5.535z"></path>
<path fill="#fff" d="M5.757 18.706h20.486c1.023 0 1.859 0.841 1.859 1.859v6.393h-24.204v-6.393c0-1.023 0.836-1.859 1.859-1.859z"></path>
<path class="light_layer_svg" fill="#ffe216" d="M28.102 21.709v5.249h-24.204v-5.249c0-1.023 0.836-1.859 1.859-1.859h20.486c1.023 0 1.859 0.841 1.859 1.859z"></path>
<path class="dark_layer_svg" fill="#884c2a" d="M4.828 8.287h10.646v6.504h-10.646v-6.504zM16.527 8.287h10.645v6.504h-10.645v-6.504z"></path>
<path class="dark_layer_svg" fill="#884c2a" d="M7.81 7.264c0.455 0 0.826-0.371 0.826-0.827 0-0.454-0.371-0.825-0.826-0.825s-0.825 0.371-0.825 0.825c0 0.456 0.37 0.827 0.825 0.827z"></path>
<path class="dark_layer_svg" fill="#884c2a" d="M9.813 7.264c0.455 0 0.826-0.371 0.826-0.827 0-0.454-0.371-0.825-0.826-0.825s-0.826 0.371-0.826 0.825c0 0.456 0.371 0.827 0.826 0.827z"></path>
<path class="dark_layer_svg" fill="#884c2a" d="M22.189 7.264c0.455 0 0.825-0.371 0.825-0.827 0-0.454-0.37-0.825-0.825-0.825s-0.826 0.371-0.826 0.825c0 0.456 0.371 0.827 0.826 0.827z"></path>
<path class="dark_layer_svg" fill="#884c2a" d="M24.191 7.264c0.455 0 0.825-0.371 0.825-0.827 0-0.454-0.37-0.825-0.825-0.825s-0.826 0.371-0.826 0.825c0 0.456 0.371 0.827 0.826 0.827z"></path>
<path fill="#fff" d="M11.471 16.446h9.059c1.244 0 2.26 1.017 2.26 2.26v8.251h-13.579v-8.251c0-1.245 1.016-2.26 2.26-2.26z"></path>
<path class="light_layer_svg" fill="#ffe216" d="M22.79 19.85v7.107h-13.579v-7.107c0-1.245 1.016-2.262 2.26-2.262h9.059c1.244 0 2.26 1.019 2.26 2.262z"></path>
<path class="dark_layer_svg" fill="#884c2a" d="M2.405 27.732h27.19v-3.073h-27.19v3.073z"></path>
<path class="dark_layer_svg" fill="#884c2a" d="M3.898 22.861h3.33v-2.508h-3.33v2.508z"></path>
<path class="dark_layer_svg" fill="#884c2a" d="M24.772 22.861h3.33v-2.508h-3.33v2.508z"></path>
<path class="dark_layer_svg" fill="#884c2a" d="M12.603 4.998h6.717c0.29 0 0.527 0.236 0.527 0.527v1.213c0 0.291-0.236 0.527-0.527 0.527h-6.717c-0.29 0-0.527-0.236-0.527-0.527v-1.213c0-0.291 0.236-0.527 0.527-0.527z"></path>
<path class="dark_layer_svg" fill="#884c2a" d="M11.479 22.625h9.043v1.144h-9.043v-1.144zM11.479 20.337h9.043v1.144h-9.043v-1.144z"></path>
<path class="dark_layer_svg" fill="#884c2a" d="M4.828 10.414v1.144h-1.666v2.087h1.666v1.146h-1.666c-0.008 0.283-0.242 0.511-0.527 0.511h-1.804c-0.291 0-0.527-0.236-0.527-0.527v-4.662c0-0.291 0.236-0.525 0.527-0.525h1.804c0.29 0 0.527 0.234 0.527 0.525v0.301h1.666z"></path>
<path class="dark_layer_svg" fill="#884c2a" d="M27.172 10.414v1.144h1.666v2.087h-1.666v1.146h1.666c0.008 0.283 0.242 0.511 0.527 0.511h1.804c0.29 0 0.526-0.236 0.526-0.527v-4.662c0-0.291-0.236-0.525-0.526-0.525h-1.804c-0.29 0-0.527 0.234-0.527 0.525v0.301h-1.666z"></path>
<path class="dark_layer_svg" fill="#884c2a" d="M23.362 27.529h-14.724v-8.823c0-1.562 1.271-2.831 2.833-2.831h9.060c1.561 0 2.831 1.269 2.831 2.831v8.823zM9.783 26.386h12.435v-7.68c0-0.93-0.757-1.689-1.688-1.689h-9.060c-0.931 0-1.688 0.759-1.688 1.689v7.68z"></path>
<path class="dark_layer_svg" fill="#884c2a" d="M28.674 27.529h-6.456v-9.394h4.024c1.341 0 2.432 1.090 2.432 2.43v6.964zM23.362 26.386h4.168v-5.822c0-0.71-0.578-1.287-1.287-1.287h-2.88v7.109zM9.783 27.529h-6.457v-6.964c0-1.34 1.090-2.43 2.43-2.43h4.026v9.394zM4.471 26.386h4.167v-7.109h-2.881c-0.709 0-1.286 0.577-1.286 1.287v5.822z"></path>
</svg>
