<svg
   width="76mm"
   height="76mm"
   viewBox="0 0 76.000007 76.000008"
   version="1.1"
   xmlns="http://www.w3.org/2000/svg"
   xmlns:svg="http://www.w3.org/2000/svg">
  <g
     transform="translate(-59.864614,-113.35069)">
    <g
       transform="matrix(12.634728,0,0,12.634728,-684.53211,-1318.7578)">
      <path
         d="m 63.612059,115.16431 v 2.92064 h -2.975606 v -2.92064 c 0,-0.13653 0.04065,-0.25436 0.117411,-0.33973 0.193612,-0.2159 0.411205,-0.39299 0.645746,-0.52211 0.02549,-0.0138 0.03349,-0.0787 0.03004,-0.17639 l 0.03831,-0.01 v -0.15945 c 0,-0.25118 0.205331,-0.4565 0.456407,-0.4565 v 0 c 0.251079,0 0.456392,0.20532 0.456392,0.4565 v 0.15945 c 0.416313,0.10584 0.796784,0.35454 1.114037,0.70838 0.07648,0.0854 0.117263,0.2032 0.117263,0.33973"
         style="fill:#f4c110;fill-opacity:1;fill-rule:evenodd;stroke:none;stroke-width:0.0352778" />
      <path
         d="m 60.399157,118.26169 h 3.207117 v 0.70979 h -3.364079 v -0.15698 -0.39582 -0.15699 h 0.156962"
         style="fill:#824025;fill-opacity:1;fill-rule:evenodd;stroke:none;stroke-width:0.0352778" />
      <path
         d="m 63.712107,118.18479 h -3.575745 v -2.10467 c 0,-0.12841 0.05526,-0.24307 0.154894,-0.32279 0.460816,-0.37007 1.040695,-0.57362 1.632973,-0.57362 0.592279,0 1.172034,0.20355 1.632973,0.57362 0.09991,0.0801 0.154905,0.19508 0.154905,0.32279 z m -3.375515,-0.19967 h 3.175419 v -1.905 c 0,-0.0684 -0.02702,-0.12453 -0.08008,-0.16722 -0.42538,-0.34149 -0.960896,-0.52952 -1.507702,-0.52952 -0.546805,0 -1.082449,0.18803 -1.507709,0.52987 -0.05319,0.0427 -0.07993,0.0984 -0.07993,0.16687 v 1.905"
         style="fill:#824025;fill-opacity:1;fill-rule:nonzero;stroke:none;stroke-width:0.0352778" />
      <path
         d="m 63.762131,118.23488 h -3.675652 v -3.07057 c 0,-0.17428 0.05388,-0.32632 0.155716,-0.43992 0.313091,-0.3489 0.683095,-0.59655 1.075697,-0.72143 v -0.0462 c 0,-0.33444 0.272027,-0.60607 0.606337,-0.60607 0.334314,0 0.60646,0.27163 0.60646,0.60607 v 0.0462 c 0.39303,0.12488 0.762777,0.37253 1.075585,0.72143 0.101811,0.1136 0.155857,0.26564 0.155857,0.43992 z m -3.375653,-0.2995 h 3.075509 v -2.77107 c 0,-0.0991 -0.0273,-0.18204 -0.07895,-0.23954 -0.302895,-0.33796 -0.662305,-0.56727 -1.039319,-0.66322 l -0.113012,-0.0289 v -0.27587 c 0,-0.16898 -0.137389,-0.30657 -0.306476,-0.30657 -0.168945,0 -0.3062,0.13759 -0.3062,0.30657 v 0.27587 l -0.112999,0.0289 c -0.376756,0.096 -0.736286,0.32491 -1.03959,0.66322 -0.05168,0.0575 -0.07896,0.14041 -0.07896,0.23954 v 2.77107"
         style="fill:#824025;fill-opacity:1;fill-rule:nonzero;stroke:none;stroke-width:0.0352778" />
      <path
         d="m 61.924367,116.23463 c 0.194306,0 0.352781,-0.15839 0.352781,-0.35277 0,-0.19403 -0.158475,-0.35278 -0.352781,-0.35278 -0.194166,0 -0.352778,0.15875 -0.352778,0.35278 0,0.19438 0.158612,0.35277 0.352778,0.35277"
         style="fill:#824025;fill-opacity:1;fill-rule:evenodd;stroke:none;stroke-width:0.0352778" />
      <path
         d="m 60.236547,115.33823 v 0.58384 c 0.421817,-0.38347 0.974411,-0.62512 1.583091,-0.65017 v -0.79269 c -0.616949,0.0296 -1.242992,0.31821 -1.583091,0.85902 z m 3.375512,0 v 0.58384 c -0.421675,-0.38347 -0.974407,-0.62512 -1.583097,-0.65017 v -0.79269 c 0.616945,0.0296 1.242984,0.31821 1.583097,0.85902"
         style="fill:#824025;fill-opacity:1;fill-rule:evenodd;stroke:none;stroke-width:0.0352778" />
      <path
         d="m 60.236547,117.52651 h 3.375512 v 0.89217 h -0.325226 l -0.209197,0.39582 h -2.306824 l -0.209049,-0.39582 h -0.325216 v -0.89217"
         style="fill:#d9b385;fill-opacity:1;fill-rule:evenodd;stroke:none;stroke-width:0.0352778" />
      <path
         d="m 63.168194,118.96478 h -2.487782 l -0.209186,-0.39617 h -0.384747 v -1.19203 h 3.675652 v 1.19203 H 63.37725 Z m -2.306983,-0.29986 h 2.126043 l 0.209057,-0.39582 h 0.265676 v -0.59266 h -3.075509 v 0.59266 h 0.265684 l 0.209049,0.39582"
         style="fill:#824025;fill-opacity:1;fill-rule:nonzero;stroke:none;stroke-width:0.0352778" />
      <path
         d="m 60.834753,116.31083 c 0.108588,0 0.196924,-0.0889 0.196924,-0.1972 0,-0.1083 -0.08834,-0.19685 -0.196924,-0.19685 -0.108451,0 -0.196921,0.0885 -0.196921,0.19685 0,0.1083 0.08847,0.1972 0.196921,0.1972"
         style="fill:#824025;fill-opacity:1;fill-rule:evenodd;stroke:none;stroke-width:0.0352778" />
      <path
         d="m 63.013854,116.31083 c 0.108444,0 0.19692,-0.0889 0.19692,-0.1972 0,-0.1083 -0.08848,-0.19685 -0.19692,-0.19685 -0.108585,0 -0.197062,0.0885 -0.197062,0.19685 0,0.1083 0.08848,0.1972 0.197062,0.1972"
         style="fill:#824025;fill-opacity:1;fill-rule:evenodd;stroke:none;stroke-width:0.0352778" />
      <path
         d="m 60.961947,118.3326 c 0.157508,0 0.285944,-0.12876 0.285944,-0.2861 0,-0.15769 -0.128436,-0.2861 -0.285944,-0.2861 -0.15765,0 -0.286082,0.12841 -0.286082,0.2861 0,0.15734 0.128432,0.2861 0.286082,0.2861"
         style="fill:#824025;fill-opacity:1;fill-rule:evenodd;stroke:none;stroke-width:0.0352778" />
      <path
         d="m 59.864614,119.35848 0.921907,-0.71931 0.257281,0.10936 -0.588561,0.60995 z m 3.528758,0 -0.588574,-0.60995 0.257281,-0.10936 0.921914,0.71931 h -0.590621"
         style="fill:#824025;fill-opacity:1;fill-rule:evenodd;stroke:none;stroke-width:0.0352778" />
      <path
         d="m 61.512612,118.52099 h 0.823097 v -0.47378 h -0.823097 v 0.47378"
         style="fill:#824025;fill-opacity:1;fill-rule:evenodd;stroke:none;stroke-width:0.0352778" />
      <path
         d="m 61.924367,114.18006 c 0.123059,0 0.22352,-0.10055 0.22352,-0.22331 0,-0.12312 -0.100461,-0.22366 -0.22352,-0.22366 -0.122919,0 -0.223379,0.10054 -0.223379,0.22366 0,0.12276 0.10046,0.22331 0.223379,0.22331"
         style="fill:#ffffff;fill-opacity:1;fill-rule:evenodd;stroke:none;stroke-width:0.0352778" />
      <path
         d="m 62.886783,118.3326 c 0.157657,0 0.286103,-0.12876 0.286103,-0.2861 0,-0.15769 -0.128446,-0.2861 -0.286103,-0.2861 -0.157656,0 -0.286067,0.12841 -0.286067,0.2861 0,0.15734 0.128411,0.2861 0.286067,0.2861"
         style="fill:#824025;fill-opacity:1;fill-rule:evenodd;stroke:none;stroke-width:0.0352778" />
    </g>
  </g>
</svg>
