<svg
   xmlns:svg="http://www.w3.org/2000/svg"
   xmlns="http://www.w3.org/2000/svg"
   width="76mm"
   height="76mm"
   viewBox="0 0 269.29134 269.29134"
   version="1.1">
  <g
     transform="translate(0,-783.07087)">
    <g
       transform="matrix(0.64572173,0,0,0.64572173,-49.002794,694.80091)">
      <rect
         y="239.18941"
         x="172.73608"
         height="272.74118"
         width="57.578693"
         style="color:#000000;clip-rule:nonzero;display:inline;overflow:visible;visibility:visible;opacity:1;isolation:auto;mix-blend-mode:normal;color-interpolation:sRGB;color-interpolation-filters:linearRGB;solid-color:#000000;solid-opacity:1;fill:#ffffff;fill-opacity:1;fill-rule:evenodd;stroke:none;stroke-width:1.25;stroke-linecap:butt;stroke-linejoin:miter;stroke-miterlimit:4;stroke-dasharray:none;stroke-dashoffset:0;stroke-opacity:1;marker:none;color-rendering:auto;image-rendering:auto;shape-rendering:auto;text-rendering:auto;enable-background:accumulate" />
      <rect
         y="264.44321"
         x="186.87822"
         height="42.426407"
         width="179.80716"
         style="color:#000000;clip-rule:nonzero;display:inline;overflow:visible;visibility:visible;opacity:1;isolation:auto;mix-blend-mode:normal;color-interpolation:sRGB;color-interpolation-filters:linearRGB;solid-color:#000000;solid-opacity:1;fill:#ffffff;fill-opacity:1;fill-rule:evenodd;stroke:none;stroke-width:1.25;stroke-linecap:butt;stroke-linejoin:miter;stroke-miterlimit:4;stroke-dasharray:none;stroke-dashoffset:0;stroke-opacity:1;marker:none;color-rendering:auto;image-rendering:auto;shape-rendering:auto;text-rendering:auto;enable-background:accumulate" />
      <path
         d="m 219.46866,231.75683 158.25694,0 c 11.71161,0 21.27109,9.73465 21.27109,21.27109 l 0,261.40923 -200.82414,0 0,-261.40923 c 0,-11.71161 9.55948,-21.27109 21.29611,-21.27109"
         style="fill:#f4c110;fill-opacity:1;fill-rule:evenodd;stroke:none" />
      <path
         d="m 144.69451,551.22363 47.14676,-36.78648 28.40316,0 -35.48519,36.78648 -40.06473,0 0,0 z m 239.36237,0 -35.51021,-36.78648 28.42819,0 47.14675,36.78648 -40.06473,0"
         style="fill:#824025;fill-opacity:1;fill-rule:evenodd;stroke:none" />
      <path
         d="m 409.65727,525.0727 -250.49841,0 0,-272.04478 c 0,-17.59244 14.33922,-31.90664 31.93166,-31.90664 l 186.63508,0 c 17.61747,0 31.93167,14.3142 31.93167,31.90664 l 0,272.04478 z m -229.20229,-21.2711 207.90617,0 0,-250.77368 c 0,-5.78073 -4.87984,-10.63554 -10.63555,-10.63554 l -186.63508,0 c -5.88083,0 -10.63554,4.75471 -10.63554,10.63554 l 0,250.77368"
         style="fill:#824025;fill-opacity:1;fill-rule:nonzero;stroke:none" />
      <path
         d="m 377.7256,412.18575 0,-152.05078 c 0,-3.9289 -3.20318,-7.10705 -7.10705,-7.10705 l -172.446,0 c -3.87885,0 -7.08203,3.20318 -7.08203,7.10705 l 0,152.05078 c 27.17695,16.59146 59.13364,26.17596 93.31754,26.17596 34.1839,0 66.14059,-9.5845 93.31754,-26.17596"
         style="fill:#824025;fill-opacity:1;fill-rule:evenodd;stroke:none" />
      <path
         d="m 201.32567,465.53866 c 5.65561,0 10.23515,-4.60457 10.23515,-10.26017 0,-5.63059 -4.57954,-10.23515 -10.23515,-10.23515 -5.63058,0 -10.23515,4.60456 -10.23515,10.23515 0,5.6556 4.60457,10.26017 10.23515,10.26017"
         style="fill:#824025;fill-opacity:1;fill-rule:evenodd;stroke:none" />
      <path
         d="m 226.17532,488.06099 c 5.63058,0 10.23514,-4.60456 10.23514,-10.26017 0,-5.63058 -4.60456,-10.23515 -10.23514,-10.23515 -5.65561,0 -10.26018,4.60457 -10.26018,10.23515 0,5.65561 4.60457,10.26017 10.26018,10.26017"
         style="fill:#824025;fill-opacity:1;fill-rule:evenodd;stroke:none" />
      <path
         d="m 367.49045,465.53866 c 5.63058,0 10.23515,-4.60457 10.23515,-10.26017 0,-5.63059 -4.60457,-10.23515 -10.23515,-10.23515 -5.63058,0 -10.23515,4.60456 -10.23515,10.23515 0,5.6556 4.60457,10.26017 10.23515,10.26017"
         style="fill:#824025;fill-opacity:1;fill-rule:evenodd;stroke:none" />
      <path
         d="m 342.66583,488.06099 c 5.63059,0 10.23515,-4.60456 10.23515,-10.26017 0,-5.63058 -4.60456,-10.23515 -10.23515,-10.23515 -5.63058,0 -10.23515,4.60457 -10.23515,10.23515 0,5.65561 4.60457,10.26017 10.23515,10.26017"
         style="fill:#824025;fill-opacity:1;fill-rule:evenodd;stroke:none" />
      <path
         d="m 222.04622,205.23052 c -3.90387,0 -7.08202,3.20318 -7.08202,7.10705 l 0,20.64547 138.88773,0 0,-20.64547 c 0,-3.90387 -3.20318,-7.10705 -7.10705,-7.10705 -9.45938,0 -86.58586,0 -124.69866,0"
         style="fill:#824025;fill-opacity:1;fill-rule:evenodd;stroke:none" />
      <path
         d="m 284.40806,224.57471 -61.53602,-73.72311 10.91082,-9.08401 50.6252,60.66015 50.6252,-60.66015 10.91082,9.08401 -61.53602,73.72311"
         style="fill:#824025;fill-opacity:1;fill-rule:nonzero;stroke:none" />
      <path
         d="m 374.9979,176.72726 -14.18907,0 c 0,-12.86276 -10.46038,-23.34816 -23.34816,-23.34816 l -106.13024,0 c -12.86276,0 -23.32313,10.4854 -23.32313,23.34816 l -14.18907,0 c 0,-20.69553 16.8417,-37.5122 37.5122,-37.5122 l 106.13024,0 c 20.69552,0 37.53723,16.81667 37.53723,37.5122"
         style="fill:#824025;fill-opacity:1;fill-rule:nonzero;stroke:none" />
      <path
         d="m 218.36757,275.60031 132.05596,0 c 3.60357,0 6.53147,3.028 6.53147,6.53147 l 0,15.01489 c 0,3.47845 -3.028,6.53148 -6.53147,6.53148 l -132.05596,0 c -3.50347,0 -6.50645,-2.9279 -6.50645,-6.53148 l 0,-15.01489 c 0,-3.60357 2.9279,-6.53147 6.50645,-6.53147"
         style="fill:#ffffff;fill-opacity:1;fill-rule:evenodd;stroke:none" />
    </g>
  </g>
</svg>
