<svg
   xmlns:svg="http://www.w3.org/2000/svg"
   xmlns="http://www.w3.org/2000/svg"
   width="76mm"
   height="76mm"
   viewBox="0 0 269.29134 269.29134"
   version="1.1">
  <g
     transform="translate(0,-783.07087)">
    <g
       transform="matrix(0.67744629,0,0,0.67744629,-137.83853,723.52797)">
      <rect
         y="173.5295"
         x="268.70059"
         height="270.72089"
         width="33.335033"
         style="color:#000000;clip-rule:nonzero;display:inline;overflow:visible;visibility:visible;opacity:1;isolation:auto;mix-blend-mode:normal;color-interpolation:sRGB;color-interpolation-filters:linearRGB;solid-color:#000000;solid-opacity:1;fill:#ffffff;fill-opacity:1;fill-rule:evenodd;stroke:none;stroke-width:1.25;stroke-linecap:butt;stroke-linejoin:miter;stroke-miterlimit:4;stroke-dasharray:none;stroke-dashoffset:0;stroke-opacity:1;marker:none;color-rendering:auto;image-rendering:auto;shape-rendering:auto;text-rendering:auto;enable-background:accumulate" />
      <path
         d="m 310.11399,167.99955 210.25188,0 c 10.76743,0 19.53749,8.79302 19.53749,19.51454 l 0,259.33666 -249.32686,0 0,-259.33666 c 0,-10.74448 8.77006,-19.51454 19.53749,-19.51454"
         style="fill:#f4c110;fill-opacity:1;fill-rule:evenodd;stroke:none" />
      <path
         d="m 539.8804,446.85075 0,30.48859 c 0,3.12233 -2.59428,5.71661 -5.71661,5.71661 l -37.33015,0 c -3.14529,0 -5.71661,-2.57133 -5.71661,-5.71661 l 0,-30.48859 48.76337,0"
         style="fill:#824025;fill-opacity:1;fill-rule:evenodd;stroke:none" />
      <path
         d="m 313.32815,446.85075 0,30.48859 c 0,3.12233 -2.57132,5.71661 -5.71661,5.71661 l -37.33015,0 c -3.14528,0 -5.71661,-2.57133 -5.71661,-5.71661 l 0,-30.48859 48.76337,0"
         style="fill:#824025;fill-opacity:1;fill-rule:evenodd;stroke:none" />
      <path
         d="m 549.66063,456.60802 -294.87608,0 0,-269.07098 c 0,-16.16262 13.13214,-29.29475 29.2718,-29.29475 l 236.30952,0 c 16.13967,0 29.29476,13.13213 29.29476,29.29475 l 0,269.07098 z m -275.33859,-19.49158 255.8011,0 0,-249.5794 c 0,-5.39519 -4.36208,-9.78022 -9.75727,-9.78022 l -236.30952,0 c -5.37223,0 -9.73431,4.38503 -9.73431,9.78022 l 0,249.5794"
         style="fill:#824025;fill-opacity:1;fill-rule:nonzero;stroke:none" />
      <path
         d="m 299.64502,422.65273 c 5.18857,0 9.38994,-4.22432 9.38994,-9.38993 0,-5.16562 -4.20137,-9.38994 -9.38994,-9.38994 -5.16561,0 -9.38993,4.22432 -9.38993,9.38994 0,5.16561 4.22432,9.38993 9.38993,9.38993"
         style="fill:#824025;fill-opacity:1;fill-rule:evenodd;stroke:none" />
      <path
         d="m 322.44259,422.65273 c 5.16561,0 9.38993,-4.22432 9.38993,-9.38993 0,-5.16562 -4.22432,-9.38994 -9.38993,-9.38994 -5.18857,0 -9.41289,4.22432 -9.41289,9.38994 0,5.16561 4.22432,9.38993 9.41289,9.38993"
         style="fill:#824025;fill-opacity:1;fill-rule:evenodd;stroke:none" />
      <path
         d="m 482.02555,422.65273 c 5.16561,0 9.38994,-4.22432 9.38994,-9.38993 0,-5.16562 -4.22433,-9.38994 -9.38994,-9.38994 -5.18857,0 -9.41289,4.22432 -9.41289,9.38994 0,5.16561 4.22432,9.38993 9.41289,9.38993"
         style="fill:#824025;fill-opacity:1;fill-rule:evenodd;stroke:none" />
      <path
         d="m 504.80016,422.65273 c 5.16561,0 9.38993,-4.22432 9.38993,-9.38993 0,-5.16562 -4.22432,-9.38994 -9.38993,-9.38994 -5.18857,0 -9.38993,4.22432 -9.38993,9.38994 0,5.16561 4.20136,9.38993 9.38993,9.38993"
         style="fill:#824025;fill-opacity:1;fill-rule:evenodd;stroke:none" />
      <path
         d="m 352.28834,422.74456 99.8775,0 0,-20.66244 -99.8775,0 0,20.66244 z"
         style="fill:#824025;fill-opacity:1;fill-rule:evenodd;stroke:none" />
      <path
         d="m 270.48801,226.6809 263.46916,0 0,126.89038 c 0,10.28531 -8.40273,18.68804 -18.68804,18.68804 l -226.09308,0 c -10.28531,0 -18.68804,-8.40273 -18.68804,-18.68804 l 0,-126.89038"
         style="fill:#824025;fill-opacity:1;fill-rule:evenodd;stroke:none" />
      <path
         d="m 318.8611,189.60329 166.70003,0 c 3.30599,0 5.99211,2.73203 5.99211,5.99211 l 0,13.77496 c 0,3.26008 -2.73204,5.99211 -5.99211,5.99211 l -166.70003,0 c -3.23712,0 -5.99211,-2.68612 -5.99211,-5.99211 l 0,-13.77496 c 0,-3.30599 2.70907,-5.99211 5.99211,-5.99211"
         style="fill:#824025;fill-opacity:1;fill-rule:evenodd;stroke:none" />
      <path
         d="m 217.68398,253.15179 20.57062,0 c 3.58149,0 6.49719,2.93866 6.49719,6.52015 l 0,54.98507 c 0,3.58149 -2.9157,6.52015 -6.49719,6.52015 l -20.57062,0 c -3.58149,0 -6.49719,-2.93866 -6.49719,-6.52015 l 0,-54.98507 c 0,-3.58149 2.9157,-6.52015 6.49719,-6.52015"
         style="fill:#824025;fill-opacity:1;fill-rule:evenodd;stroke:none" />
      <path
         d="m 221.44914,263.04681 0,-17.17279 c 0,-2.84683 0.91833,-5.50999 2.52541,-7.69102 1.60708,-2.18104 3.87995,-3.85699 6.61198,-4.70645 l 33.65683,-10.5608 3.85699,12.42042 -33.63387,10.53785 0.0184,0 0,17.17279 -13.0403,0"
         style="fill:#824025;fill-opacity:1;fill-rule:evenodd;stroke:none" />
      <path
         d="m 586.7612,253.15179 -20.57062,0 c -3.58149,0 -6.49719,2.93866 -6.49719,6.52015 l 0,54.98507 c 0,3.58149 2.9157,6.52015 6.49719,6.52015 l 20.57062,0 c 3.58149,0 6.49719,-2.93866 6.49719,-6.52015 l 0,-54.98507 c 0,-3.58149 -2.9157,-6.52015 -6.49719,-6.52015"
         style="fill:#824025;fill-opacity:1;fill-rule:evenodd;stroke:none" />
      <path
         d="m 582.99604,263.04681 0,-17.17279 c 0,-2.84683 -0.91833,-5.50999 -2.52541,-7.69102 -1.60708,-2.18104 -3.87995,-3.85699 -6.61198,-4.70645 l -33.65683,-10.5608 -3.85699,12.42042 33.63387,10.53785 -0.0184,0 0,17.17279 13.0403,0"
         style="fill:#824025;fill-opacity:1;fill-rule:evenodd;stroke:none" />
      <path
         d="m 426.0992,90.239879 c -30.46563,4.270239 -61.96439,17.058001 -70.43599,52.298951 l -10.65264,0 c -3.58149,0 -6.49719,2.9157 -6.49719,6.49719 l 0,18.96353 127.41842,0 0,-18.96353 c 0,-3.58149 -2.93866,-6.49719 -6.52015,-6.49719 l -13.77496,0 c 4.77532,-18.22887 19.81299,-40.40657 50.64595,-52.298951 -30.48859,4.270239 -61.98734,17.058001 -70.45894,52.298951 l -50.3475,0 c 4.75236,-18.22887 19.81299,-40.40657 50.623,-52.298951"
         style="fill:#824025;fill-opacity:1;fill-rule:evenodd;stroke:none" />
    </g>
  </g>
</svg>
